<?xml version="1.0" encoding="UTF-8"?>
<svg id="Layer_1" data-name="Layer 1" xmlns="http://www.w3.org/2000/svg" viewBox="0 0 100 100">
  <defs>
    <style>
      .cls-1 {
        fill: #f1f2f2;
      }

      .cls-1, .cls-2 {
        stroke-width: 0px;
      }

      .cls-2 {
        fill: #2165a9;
      }
    </style>
  </defs>
  <rect class="cls-2" width="100" height="100"/>
  <g>
    <polygon class="cls-1" points="82.5 24.75 82.5 12.86 45.11 12.86 45.11 24.75 70.61 24.75 70.61 30.6 45.11 30.6 45.11 42.5 70.61 42.5 70.61 48.35 45.11 48.35 45.11 60.24 70.61 60.24 82.5 60.24 82.5 60.24 82.5 48.35 82.5 48.35 82.5 42.5 82.5 42.5 82.5 30.6 82.5 30.6 82.5 24.75 82.5 24.75"/>
    <polygon class="cls-1" points="32.83 12.86 17.5 12.86 17.5 12.86 17.5 71.81 17.5 77.86 17.5 87.14 32.83 87.14 81.95 87.14 82.5 87.14 82.5 87.14 82.5 71.81 32.83 71.81 32.83 12.86"/>
  </g>
</svg>